# xmcd
#
# Track frame offsets:
#	150
#	15386
#	29440
#	51253
#	64800
#	77447
#	88710
#	101839
#	118118
#	129873
#	140073
#	151610
#	167028
#	180550
#	196713
#	213239
#	232020
#	249652
#	262844
#	279929
#	294218
#
# Disc length: 4134 seconds
#
# Revision: 1
# Processed by: cddbd v1.5.2PL0 Copyright (c) Steve Scherf et al.
# Submitted via: dBpowerAMP V4.0
#
DISCID=16102415
DTITLE=Various Artist - Hott Urban Volume 45 Can
DYEAR=2019
DGENRE=Urban
TTITLE0=Gesaffelstein X The Weeknd - Lost In The Fire
TTITLE1=Chris Brown - Undecided
TTITLE2=21 Savage ft. J. Cole - A Lot
TTITLE3=Meek Mill ft. Drake - Going Bad
TTITLE4=City Girls ft. Cardi B - Twerk [Remix]
TTITLE5=Post Malone - Wow
TTITLE6=Dababy - 21
TTITLE7=Normani and 6lack - Waves
TTITLE8=Future - Crushed Up
TTITLE9=Calboy - Envy Me
TTITLE10=Tory Lanez ft. Trippie Redd - Ferris Wheel
TTITLE11=Lil Baby and Gunna - Close Friends
TTITLE12=A Boogie Wit Da Hoodie - Look Back At It
TTITLE13=Ro James - Excuse Me
TTITLE14=Jez Dior ft. Jackson Guthy - Nobody Knows
TTITLE15=Lil Wayne ft. Xxxtentacion - Don't Cry
TTITLE16=Lil Duval ft. Ty Dolla $ign - Pull Up
TTITLE17=Kid Ink ft. Lil Wayne And Saweetie - Yuso
TTITLE18=Tank - Dirty
TTITLE19=Zhavia ft. Jeremih - Candlelight [Remix]
TTITLE20=Ari Lennox ft. J. Cole - Shea Butter Baby
EXTD=
EXTT0=
EXTT1=
EXTT2=
EXTT3=
EXTT4=
EXTT5=
EXTT6=
EXTT7=
EXTT8=
EXTT9=
EXTT10=
EXTT11=
EXTT12=
EXTT13=
EXTT14=
EXTT15=
EXTT16=
EXTT17=
EXTT18=
EXTT19=
EXTT20=
PLAYORDER=
